<?xml version="1.0" encoding="UTF-8" standalone="no"?>
<svg
   xmlns:dc="http://purl.org/dc/elements/1.1/"
   xmlns:cc="http://creativecommons.org/ns#"
   xmlns:rdf="http://www.w3.org/1999/02/22-rdf-syntax-ns#"
   xmlns:svg="http://www.w3.org/2000/svg"
   xmlns="http://www.w3.org/2000/svg"
   id="logo"
   version="1.1"
   viewBox="0 0 1230 600"
   width="1230"
   height="600">
  <metadata
     id="metadata1163">
    <rdf:RDF>
      <cc:Work
         rdf:about="">
        <dc:format>image/svg+xml</dc:format>
        <dc:type
           rdf:resource="http://purl.org/dc/dcmitype/StillImage" />
        <dc:title></dc:title>
      </cc:Work>
    </rdf:RDF>
  </metadata>
  <defs
     id="defs1161" />
  <desc
     id="desc1142">RB webstudio - spécialiste Python - Javascript/Typescript</desc>
  <g
     id="layer4"
     style="display:inline">
    <rect
       style="fill:#eeeeee;stroke-width:0.850738;stroke-linecap:square"
       id="rect1772"
       width="1230"
       height="600"
       x="0"
       y="0" />
  </g>
  <g
     id="layer3"
     style="display:inline" />
  <g
     id="layer5">
    <g
       transform="matrix(4.0985884,0,0,4.0985884,-159.91632,-157.07456)"
       id="g1156"
       style="display:inline">
      <circle
         cx="97.246002"
         cy="111.52"
         r="33.073002"
         fill="#355269"
         stroke-width="0.177"
         style="paint-order:markers fill stroke"
         id="circle1144" />
      <g
         transform="matrix(0.33371,0,0,0.33371,-78.371,192.62)"
         fill="#eeeeee"
         id="g1154">
        <g
           transform="translate(243.55,81.615)"
           stroke-width="0.67039"
           aria-label="rb"
           id="g1150">
          <path
             d="m 251.15,-309.59 v 27.653 h -25.077 v -31.927 q 0,-10.81 2.0112,-16.843 2.0112,-6.0963 6.8505,-10.81 3.6452,-3.6452 8.4846,-5.6564 4.9022,-2.074 9.8044,-2.074 2.3882,0 4.7136,0.18855 2.3254,0.18854 4.5251,0.56563 v 26.396 q -0.43994,-0.0628 -1.3198,-0.18855 -2.074,-0.31424 -2.6396,-0.31424 -4.0852,0 -5.7192,2.6396 -1.6341,2.6396 -1.6341,10.37 z"
             id="path1146" />
          <path
             d="m 270.76,-373.69 h 24.448 v 51.599 q 0,9.553 2.2626,13.324 2.2626,3.771 7.5418,3.7709 3.8338,0 6.662,-2.8282 2.8282,-2.891 2.8282,-6.7876 0,-4.2109 -2.7653,-7.039 -2.7653,-2.891 -6.7248,-2.891 -1.0056,0 -2.1368,0.31425 -1.1313,0.25139 -3.2681,1.1313 v -26.019 q 0.62849,-0.0629 2.6396,-0.18855 2.0112,-0.18855 3.1424,-0.18855 14.141,0 24.008,10.181 9.9301,10.119 9.9301,24.7 0,6.8505 -2.514,13.135 -2.5139,6.222 -7.2276,11.061 -4.9022,4.965 -11.187,7.6675 -6.222,2.6396 -13.135,2.6396 -10.181,0 -18.415,-5.2164 -8.1703,-5.2793 -12.13,-14.267 -2.074,-4.7765 -3.0167,-9.8672 -0.94273,-5.1536 -0.94273,-12.758 v -4.9022 z"
             id="path1148" />
        </g>
        <path
           d="m 542.38,-288.15 h -31.744 l 15.872,-17.36 z"
           stroke-width="0.44511"
           style="paint-order:markers fill stroke"
           id="path1152" />
      </g>
    </g>
    <g
       aria-label="RB Webstudio 
spécialiste Javascript, 
Typescript et Python"
       id="text1777"
       style="font-size:66.6201px;line-height:1.25;font-family:'DejaVu Sans';-inkscape-font-specification:'DejaVu Sans';text-align:start;text-anchor:start;fill:#355269;fill-opacity:1;stroke-width:1.6655">
      <path
         d="m 424.42637,232.49364 v -47.68803 h 20.26578 q 7.6444,0 11.09251,1.30118 3.48064,1.26864 5.56252,4.55411 2.08188,3.28546 2.08188,7.51428 0,5.36734 -3.15535,8.88051 -3.15535,3.48064 -9.43351,4.39146 3.12282,1.82164 5.13963,4.00111 2.04935,2.17947 5.49746,7.74198 l 5.82276,9.3034 h -11.51539 l -6.96128,-10.37686 q -3.70835,-5.56252 -5.07458,-6.99381 -1.36623,-1.46382 -2.89511,-1.98429 -1.52888,-0.553 -4.84687,-0.553 h -1.95176 v 19.90796 z m 9.62869,-27.51983 h 7.12392 q 6.92875,0 8.65281,-0.58553 1.72405,-0.58553 2.69993,-2.01682 0.97588,-1.43129 0.97588,-3.57823 0,-2.40717 -1.30117,-3.87099 -1.26864,-1.49635 -3.61076,-1.8867 -1.17105,-0.16265 -7.02634,-0.16265 h -7.51427 z"
         style="font-style:normal;font-variant:normal;font-weight:bold;font-stretch:normal;font-family:Arial;-inkscape-font-specification:'Arial Bold';fill:#355269;fill-opacity:1;stroke-width:1.6655"
         id="path1832" />
      <path
         d="m 472.53727,184.80561 h 19.0622 q 5.66011,0 8.4251,0.48795 2.79752,0.45541 4.97699,1.95176 2.212,1.49635 3.67582,4.00111 1.46382,2.47223 1.46382,5.56251 0,3.35053 -1.82165,6.14805 -1.78911,2.79752 -4.8794,4.19629 4.35894,1.26864 6.70105,4.3264 2.34211,3.05776 2.34211,7.18898 0,3.25294 -1.52888,6.34323 -1.49635,3.05776 -4.13123,4.91193 -2.60234,1.82164 -6.44081,2.24452 -2.40717,0.26024 -11.61297,0.3253 h -16.23215 z m 9.62869,7.93717 v 11.02744 h 6.31069 q 5.62758,0 6.99381,-0.16264 2.47223,-0.29277 3.87099,-1.69153 1.4313,-1.43129 1.4313,-3.74087 0,-2.212 -1.23612,-3.57823 -1.20358,-1.39876 -3.61076,-1.69153 -1.43129,-0.16264 -8.22992,-0.16264 z m 0,18.9646 v 12.75151 h 8.91304 q 5.2047,0 6.60346,-0.29277 2.14694,-0.39035 3.48064,-1.8867 1.36623,-1.52888 1.36623,-4.06617 0,-2.14693 -1.04094,-3.64328 -1.04094,-1.49635 -3.02523,-2.17947 -1.95176,-0.68312 -8.52269,-0.68312 z"
         style="font-style:normal;font-variant:normal;font-weight:bold;font-stretch:normal;font-family:Arial;-inkscape-font-specification:'Arial Bold';fill:#355269;fill-opacity:1;stroke-width:1.6655"
         id="path1834" />
      <path
         d="m 545.89095,232.49364 -11.38527,-47.68803 h 9.85639 l 7.18899,32.75706 8.71786,-32.75706 h 11.45033 l 8.36005,33.31006 7.3191,-33.31006 h 9.69375 l -11.58045,47.68803 h -10.21422 l -9.49857,-35.65217 -9.46604,35.65217 z"
         style="font-style:normal;font-variant:normal;font-weight:bold;font-stretch:normal;font-family:Arial;-inkscape-font-specification:'Arial Bold';fill:#355269;fill-opacity:1;stroke-width:1.6655"
         id="path1836" />
      <path
         d="m 620.74098,221.49872 9.10821,1.52888 q -1.75658,5.00952 -5.56252,7.64439 -3.7734,2.60235 -9.46604,2.60235 -9.01062,0 -13.33703,-5.88781 -3.41558,-4.71676 -3.41558,-11.90574 0,-8.58775 4.48905,-13.43462 4.48905,-4.8794 11.35274,-4.8794 7.70946,0 12.16598,5.1071 4.45652,5.07458 4.26134,15.58156 h -22.90066 q 0.0976,4.06617 2.212,6.34322 2.11441,2.24453 5.26975,2.24453 2.14694,0 3.61076,-1.17106 1.46382,-1.17105 2.212,-3.7734 z m 0.52046,-9.23834 q -0.0976,-3.96858 -2.04934,-6.01793 -1.95176,-2.08187 -4.74929,-2.08187 -2.9927,0 -4.94446,2.17946 -1.95176,2.17947 -1.91923,5.92034 z"
         style="font-style:normal;font-variant:normal;font-weight:bold;font-stretch:normal;font-family:Arial;-inkscape-font-specification:'Arial Bold';fill:#355269;fill-opacity:1;stroke-width:1.6655"
         id="path1838" />
      <path
         d="m 637.39601,232.49364 v -47.68803 h 9.14075 v 17.1755 q 4.22881,-4.81434 10.01903,-4.81434 6.3107,0 10.44192,4.58663 4.13123,4.55411 4.13123,13.10933 0,8.84798 -4.22881,13.6298 -4.19629,4.78181 -10.21422,4.78181 -2.96017,0 -5.85528,-1.46382 -2.86258,-1.49635 -4.94446,-4.39146 v 5.07458 z m 9.07569,-18.02126 q 0,5.36734 1.69152,7.93716 2.37464,3.64329 6.3107,3.64329 3.02523,0 5.13963,-2.56982 2.14694,-2.60235 2.14694,-8.16487 0,-5.92034 -2.14694,-8.52269 -2.14693,-2.63487 -5.49746,-2.63487 -3.28546,0 -5.46493,2.56981 -2.17946,2.53729 -2.17946,7.74199 z"
         style="font-style:normal;font-variant:normal;font-weight:bold;font-stretch:normal;font-family:Arial;-inkscape-font-specification:'Arial Bold';fill:#355269;fill-opacity:1;stroke-width:1.6655"
         id="path1840" />
      <path
         d="m 675.26017,222.63725 9.17328,-1.39877 q 0.58552,2.66741 2.37464,4.06617 1.78911,1.36623 5.00952,1.36623 3.5457,0 5.33481,-1.30117 1.20359,-0.91082 1.20359,-2.4397 0,-1.04094 -0.65059,-1.72406 -0.68312,-0.65058 -3.05776,-1.20358 -11.05998,-2.4397 -14.02015,-4.45652 -4.0987,-2.79753 -4.0987,-7.77452 0,-4.48905 3.5457,-7.5468 3.5457,-3.05776 10.99492,-3.05776 7.0914,0 10.53951,2.30958 3.44811,2.30958 4.74929,6.83116 l -8.62028,1.59394 q -0.553,-2.01682 -2.11441,-3.09029 -1.52888,-1.07347 -4.39146,-1.07347 -3.61076,0 -5.17217,1.00841 -1.04094,0.71565 -1.04094,1.85418 0,0.97588 0.91083,1.65899 1.23611,0.91083 8.52268,2.56982 7.31911,1.659 10.21422,4.06617 2.86258,2.4397 2.86258,6.79863 0,4.74929 -3.96858,8.16487 -3.96858,3.41558 -11.74309,3.41558 -7.05887,0 -11.1901,-2.86258 -4.0987,-2.86258 -5.36734,-7.77451 z"
         style="font-style:normal;font-variant:normal;font-weight:bold;font-stretch:normal;font-family:Arial;-inkscape-font-specification:'Arial Bold';fill:#355269;fill-opacity:1;stroke-width:1.6655"
         id="path1842" />
      <path
         d="m 731.3733,197.94747 v 7.28657 h -6.24563 v 13.92256 q 0,4.22882 0.16264,4.94447 0.19518,0.68311 0.81324,1.13852 0.65058,0.45541 1.56141,0.45541 1.26864,0 3.67581,-0.87829 l 0.78071,7.0914 q -3.18788,1.36623 -7.22152,1.36623 -2.47223,0 -4.45652,-0.81323 -1.98429,-0.84577 -2.92764,-2.14694 -0.91082,-1.3337 -1.26865,-3.57823 -0.29276,-1.59394 -0.29276,-6.44081 v -15.06109 h -4.19629 v -7.28657 h 4.19629 v -6.86369 l 9.17328,-5.33481 v 12.1985 z"
         style="font-style:normal;font-variant:normal;font-weight:bold;font-stretch:normal;font-family:Arial;-inkscape-font-specification:'Arial Bold';fill:#355269;fill-opacity:1;stroke-width:1.6655"
         id="path1844" />
      <path
         d="m 760.45452,232.49364 v -5.17217 q -1.8867,2.765 -4.97699,4.35893 -3.05776,1.59394 -6.47334,1.59394 -3.48064,0 -6.24563,-1.52888 -2.765,-1.52888 -4.00111,-4.29387 -1.23612,-2.765 -1.23612,-7.6444 v -21.85972 h 9.14075 v 15.87432 q 0,7.28658 0.48794,8.94557 0.52047,1.62647 1.85417,2.60235 1.3337,0.94335 3.38305,0.94335 2.34211,0 4.19629,-1.26864 1.85417,-1.30118 2.53729,-3.18788 0.68311,-1.91923 0.68311,-9.33592 v -14.57315 h 9.14075 v 34.54617 z"
         style="font-style:normal;font-variant:normal;font-weight:bold;font-stretch:normal;font-family:Arial;-inkscape-font-specification:'Arial Bold';fill:#355269;fill-opacity:1;stroke-width:1.6655"
         id="path1846" />
      <path
         d="m 810.0943,232.49364 h -8.49016 v -5.07458 q -2.1144,2.96017 -5.00952,4.42399 -2.86258,1.43129 -5.79022,1.43129 -5.95287,0 -10.21421,-4.78181 -4.22882,-4.81435 -4.22882,-13.40209 0,-8.78293 4.13123,-13.33704 4.13123,-4.58663 10.44192,-4.58663 5.79022,0 10.01904,4.81434 v -17.1755 h 9.14074 z m -24.39701,-18.02126 q 0,5.52999 1.52888,8.00222 2.212,3.57823 6.18058,3.57823 3.15535,0 5.36734,-2.66741 2.212,-2.69994 2.212,-8.03475 0,-5.95287 -2.14694,-8.55522 -2.14694,-2.63487 -5.49746,-2.63487 -3.25293,0 -5.46493,2.60234 -2.17947,2.56982 -2.17947,7.70946 z"
         style="font-style:normal;font-variant:normal;font-weight:bold;font-stretch:normal;font-family:Arial;-inkscape-font-specification:'Arial Bold';fill:#355269;fill-opacity:1;stroke-width:1.6655"
         id="path1848" />
      <path
         d="m 819.10493,193.26325 v -8.45764 h 9.14075 v 8.45764 z m 0,39.23039 v -34.54617 h 9.14075 v 34.54617 z"
         style="font-style:normal;font-variant:normal;font-weight:bold;font-stretch:normal;font-family:Arial;-inkscape-font-specification:'Arial Bold';fill:#355269;fill-opacity:1;stroke-width:1.6655"
         id="path1850" />
      <path
         d="m 835.49974,214.73261 q 0,-4.5541 2.24453,-8.81545 2.24452,-4.26134 6.34322,-6.50587 4.13123,-2.24452 9.20581,-2.24452 7.83957,0 12.84909,5.1071 5.00952,5.07458 5.00952,12.8491 0,7.83957 -5.07458,13.01173 -5.04205,5.13964 -12.71898,5.13964 -4.74928,0 -9.07568,-2.14694 -4.29388,-2.14693 -6.5384,-6.27816 -2.24453,-4.16376 -2.24453,-10.11663 z m 9.36845,0.48794 q 0,5.13964 2.43971,7.87211 2.4397,2.73246 6.01792,2.73246 3.57823,0 5.9854,-2.73246 2.43971,-2.73247 2.43971,-7.93716 0,-5.07458 -2.43971,-7.80705 -2.40717,-2.73246 -5.9854,-2.73246 -3.57822,0 -6.01792,2.73246 -2.43971,2.73247 -2.43971,7.8721 z"
         style="font-style:normal;font-variant:normal;font-weight:bold;font-stretch:normal;font-family:Arial;-inkscape-font-specification:'Arial Bold';fill:#355269;fill-opacity:1;stroke-width:1.6655"
         id="path1852" />
      <path
         d="m 421.10838,306.97755 9.17327,-1.39876 q 0.58553,2.6674 2.37464,4.06616 1.78912,1.36624 5.00952,1.36624 3.5457,0 5.33482,-1.30118 1.20358,-0.91082 1.20358,-2.4397 0,-1.04094 -0.65059,-1.72405 -0.68311,-0.65059 -3.05775,-1.20359 -11.05998,-2.4397 -14.02015,-4.45652 -4.0987,-2.79752 -4.0987,-7.77451 0,-4.48905 3.5457,-7.54681 3.5457,-3.05776 10.99492,-3.05776 7.0914,0 10.53951,2.30958 3.44811,2.30959 4.74928,6.83117 l -8.62028,1.59393 q -0.553,-2.01682 -2.1144,-3.09028 -1.52888,-1.07347 -4.39147,-1.07347 -3.61075,0 -5.17216,1.00841 -1.04094,0.71564 -1.04094,1.85417 0,0.97588 0.91082,1.659 1.23612,0.91082 8.52269,2.56981 7.3191,1.659 10.21421,4.06617 2.86259,2.4397 2.86259,6.79864 0,4.74928 -3.96858,8.16486 -3.96858,3.41558 -11.7431,3.41558 -7.05887,0 -11.19009,-2.86258 -4.0987,-2.86258 -5.36734,-7.77451 z"
         style="font-style:normal;font-variant:normal;font-weight:bold;font-stretch:normal;font-family:Arial;-inkscape-font-specification:'Arial Bold';fill:#355269;fill-opacity:1;stroke-width:1.6655"
         id="path1854" />
      <path
         d="m 461.11947,282.28777 h 8.52269 v 5.07458 q 1.659,-2.60235 4.48905,-4.22881 2.83005,-1.62647 6.27816,-1.62647 6.01793,0 10.21422,4.71675 4.19629,4.71676 4.19629,13.14186 0,8.65281 -4.22882,13.46715 -4.22882,4.78181 -10.24674,4.78181 -2.86259,0 -5.2047,-1.13852 -2.30958,-1.13853 -4.8794,-3.90352 v 17.4032 h -9.14075 z m 9.04316,16.68756 q 0,5.82275 2.30958,8.62028 2.30959,2.76499 5.62758,2.76499 3.18788,0 5.30228,-2.53729 2.11441,-2.56982 2.11441,-8.39257 0,-5.4324 -2.17946,-8.06728 -2.17947,-2.63488 -5.39988,-2.63488 -3.35052,0 -5.56251,2.60235 -2.212,2.56982 -2.212,7.6444 z"
         style="font-style:normal;font-variant:normal;font-weight:bold;font-stretch:normal;font-family:Arial;-inkscape-font-specification:'Arial Bold';fill:#355269;fill-opacity:1;stroke-width:1.6655"
         id="path1856" />
      <path
         d="m 522.07947,305.83902 9.10822,1.52888 q -1.75659,5.00952 -5.56252,7.6444 -3.77341,2.60234 -9.46604,2.60234 -9.01063,0 -13.33703,-5.88781 -3.41559,-4.71675 -3.41559,-11.90574 0,-8.58775 4.48905,-13.43462 4.48905,-4.8794 11.35275,-4.8794 7.70945,0 12.16597,5.10711 4.45652,5.07457 4.26135,15.58155 h -22.90066 q 0.0976,4.06617 2.21199,6.34323 2.11441,2.24452 5.26976,2.24452 2.14693,0 3.61075,-1.17106 1.46382,-1.17105 2.212,-3.7734 z m 0.52047,-9.23833 q -0.0976,-3.96858 -2.04935,-6.01793 -1.95176,-2.08188 -4.74929,-2.08188 -2.9927,0 -4.94446,2.17947 -1.95176,2.17946 -1.91923,5.92034 z m -11.67804,-18.54173 4.48905,-9.72628 h 10.24675 l -8.94557,9.72628 z"
         style="font-style:normal;font-variant:normal;font-weight:bold;font-stretch:normal;font-family:Arial;-inkscape-font-specification:'Arial Bold';fill:#355269;fill-opacity:1;stroke-width:1.6655"
         id="path1858" />
      <path
         d="m 569.24702,292.50199 -9.01063,1.62647 q -0.45541,-2.69994 -2.08188,-4.06617 -1.59393,-1.36624 -4.16375,-1.36624 -3.41558,0 -5.46493,2.37465 -2.01682,2.34211 -2.01682,7.8721 0,6.14805 2.04935,8.68533 2.08188,2.53729 5.56252,2.53729 2.60234,0 4.26134,-1.46382 1.659,-1.49635 2.34211,-5.1071 l 8.9781,1.52888 q -1.39876,6.18057 -5.36734,9.33592 -3.96858,3.15534 -10.6371,3.15534 -7.57933,0 -12.10091,-4.78181 -4.48905,-4.78181 -4.48905,-13.23944 0,-8.55522 4.52158,-13.30451 4.52158,-4.78181 12.23103,-4.78181 6.31069,0 10.01904,2.73246 3.74087,2.69994 5.36734,8.26246 z"
         style="font-style:normal;font-variant:normal;font-weight:bold;font-stretch:normal;font-family:Arial;-inkscape-font-specification:'Arial Bold';fill:#355269;fill-opacity:1;stroke-width:1.6655"
         id="path1860" />
      <path
         d="m 576.17577,277.60355 v -8.45763 h 9.14074 v 8.45763 z m 0,39.23039 v -34.54617 h 9.14074 v 34.54617 z"
         style="font-style:normal;font-variant:normal;font-weight:bold;font-stretch:normal;font-family:Arial;-inkscape-font-specification:'Arial Bold';fill:#355269;fill-opacity:1;stroke-width:1.6655"
         id="path1862" />
      <path
         d="m 601.51613,292.82728 -8.29498,-1.49635 q 1.39876,-5.00952 4.81434,-7.41669 3.41558,-2.40717 10.14916,-2.40717 6.11551,0 9.10821,1.46382 2.9927,1.43129 4.19629,3.67582 1.23611,2.21199 1.23611,8.16486 l -0.0976,10.66963 q 0,4.55411 0.42288,6.73357 0.45541,2.14694 1.65899,4.61917 h -9.04315 q -0.35783,-0.91082 -0.8783,-2.69994 -0.2277,-0.81323 -0.32529,-1.07346 -2.34211,2.27705 -5.00952,3.41558 -2.66741,1.13852 -5.69264,1.13852 -5.33481,0 -8.4251,-2.89511 -3.05776,-2.89511 -3.05776,-7.3191 0,-2.92764 1.39877,-5.2047 1.39876,-2.30958 3.90352,-3.51317 2.53729,-1.23611 7.28657,-2.14693 6.40828,-1.20359 8.88051,-2.24453 v -0.91082 q 0,-2.63488 -1.30117,-3.74087 -1.30117,-1.13853 -4.91193,-1.13853 -2.4397,0 -3.80594,0.97588 -1.36623,0.94335 -2.21199,3.35052 z m 12.23103,7.41669 q -1.75658,0.58553 -5.56251,1.39876 -3.80594,0.81324 -4.97699,1.59394 -1.78912,1.26865 -1.78912,3.22041 0,1.91923 1.43129,3.31799 1.43129,1.39876 3.64329,1.39876 2.47223,0 4.71675,-1.62646 1.659,-1.23612 2.17947,-3.02523 0.35782,-1.17106 0.35782,-4.45652 z"
         style="font-style:normal;font-variant:normal;font-weight:bold;font-stretch:normal;font-family:Arial;-inkscape-font-specification:'Arial Bold';fill:#355269;fill-opacity:1;stroke-width:1.6655"
         id="path1864" />
      <path
         d="m 631.7359,316.83394 v -47.68802 h 9.14075 v 47.68802 z"
         style="font-style:normal;font-variant:normal;font-weight:bold;font-stretch:normal;font-family:Arial;-inkscape-font-specification:'Arial Bold';fill:#355269;fill-opacity:1;stroke-width:1.6655"
         id="path1866" />
      <path
         d="m 650.2451,277.60355 v -8.45763 h 9.14075 v 8.45763 z m 0,39.23039 v -34.54617 h 9.14075 v 34.54617 z"
         style="font-style:normal;font-variant:normal;font-weight:bold;font-stretch:normal;font-family:Arial;-inkscape-font-specification:'Arial Bold';fill:#355269;fill-opacity:1;stroke-width:1.6655"
         id="path1868" />
      <path
         d="m 665.5339,306.97755 9.17327,-1.39876 q 0.58553,2.6674 2.37465,4.06616 1.78911,1.36624 5.00951,1.36624 3.5457,0 5.33482,-1.30118 1.20358,-0.91082 1.20358,-2.4397 0,-1.04094 -0.65058,-1.72405 -0.68312,-0.65059 -3.05776,-1.20359 -11.05998,-2.4397 -14.02015,-4.45652 -4.0987,-2.79752 -4.0987,-7.77451 0,-4.48905 3.5457,-7.54681 3.5457,-3.05776 10.99492,-3.05776 7.0914,0 10.53951,2.30958 3.44811,2.30959 4.74928,6.83117 l -8.62027,1.59393 q -0.553,-2.01682 -2.11441,-3.09028 -1.52888,-1.07347 -4.39146,-1.07347 -3.61076,0 -5.17217,1.00841 -1.04094,0.71564 -1.04094,1.85417 0,0.97588 0.91082,1.659 1.23612,0.91082 8.52269,2.56981 7.3191,1.659 10.21422,4.06617 2.86258,2.4397 2.86258,6.79864 0,4.74928 -3.96858,8.16486 -3.96858,3.41558 -11.7431,3.41558 -7.05886,0 -11.19009,-2.86258 -4.0987,-2.86258 -5.36734,-7.77451 z"
         style="font-style:normal;font-variant:normal;font-weight:bold;font-stretch:normal;font-family:Arial;-inkscape-font-specification:'Arial Bold';fill:#355269;fill-opacity:1;stroke-width:1.6655"
         id="path1870" />
      <path
         d="m 721.64701,282.28777 v 7.28658 h -6.24563 v 13.92256 q 0,4.22881 0.16264,4.94446 0.19518,0.68311 0.81324,1.13853 0.65059,0.45541 1.56141,0.45541 1.26864,0 3.67581,-0.8783 l 0.78071,7.0914 q -3.18788,1.36623 -7.22152,1.36623 -2.47223,0 -4.45652,-0.81323 -1.98429,-0.84576 -2.92764,-2.14694 -0.91082,-1.3337 -1.26864,-3.57822 -0.29277,-1.59394 -0.29277,-6.44082 v -15.06108 h -4.19628 v -7.28658 h 4.19628 v -6.86369 l 9.17328,-5.33481 v 12.1985 z"
         style="font-style:normal;font-variant:normal;font-weight:bold;font-stretch:normal;font-family:Arial;-inkscape-font-specification:'Arial Bold';fill:#355269;fill-opacity:1;stroke-width:1.6655"
         id="path1872" />
      <path
         d="m 747.9958,305.83902 9.10821,1.52888 q -1.75658,5.00952 -5.56251,7.6444 -3.77341,2.60234 -9.46604,2.60234 -9.01063,0 -13.33704,-5.88781 -3.41558,-4.71675 -3.41558,-11.90574 0,-8.58775 4.48905,-13.43462 4.48905,-4.8794 11.35274,-4.8794 7.70946,0 12.16598,5.10711 4.45652,5.07457 4.26134,15.58155 h -22.90066 q 0.0976,4.06617 2.212,6.34323 2.11441,2.24452 5.26975,2.24452 2.14694,0 3.61076,-1.17106 1.46382,-1.17105 2.212,-3.7734 z m 0.52047,-9.23833 q -0.0976,-3.96858 -2.04935,-6.01793 -1.95176,-2.08188 -4.74929,-2.08188 -2.9927,0 -4.94446,2.17947 -1.95176,2.17946 -1.91923,5.92034 z"
         style="font-style:normal;font-variant:normal;font-weight:bold;font-stretch:normal;font-family:Arial;-inkscape-font-specification:'Arial Bold';fill:#355269;fill-opacity:1;stroke-width:1.6655"
         id="path1874" />
      <path
         d="m 800.82345,269.14592 h 9.59616 v 30.18723 q 0,5.92034 -1.04094,9.10822 -1.39876,4.16375 -5.07458,6.70104 -3.67581,2.50476 -9.69374,2.50476 -7.05887,0 -10.86481,-3.93605 -3.80593,-3.96858 -3.83846,-11.61297 l 9.07569,-1.04094 q 0.16265,4.09869 1.20359,5.79022 1.5614,2.56982 4.74928,2.56982 3.22041,0 4.55411,-1.82164 1.3337,-1.85418 1.3337,-7.6444 z"
         style="font-style:normal;font-variant:normal;font-weight:bold;font-stretch:normal;font-family:Arial;-inkscape-font-specification:'Arial Bold';fill:#355269;fill-opacity:1;stroke-width:1.6655"
         id="path1876" />
      <path
         d="m 827.43247,292.82728 -8.29499,-1.49635 q 1.39876,-5.00952 4.81435,-7.41669 3.41558,-2.40717 10.14915,-2.40717 6.11552,0 9.10822,1.46382 2.9927,1.43129 4.19628,3.67582 1.23612,2.21199 1.23612,8.16486 l -0.0976,10.66963 q 0,4.55411 0.42288,6.73357 0.45541,2.14694 1.659,4.61917 h -9.04316 q -0.35782,-0.91082 -0.87829,-2.69994 -0.22771,-0.81323 -0.32529,-1.07346 -2.34212,2.27705 -5.00952,3.41558 -2.66741,1.13852 -5.69264,1.13852 -5.33481,0 -8.4251,-2.89511 -3.05776,-2.89511 -3.05776,-7.3191 0,-2.92764 1.39876,-5.2047 1.39876,-2.30958 3.90352,-3.51317 2.53729,-1.23611 7.28658,-2.14693 6.40828,-1.20359 8.88051,-2.24453 v -0.91082 q 0,-2.63488 -1.30117,-3.74087 -1.30118,-1.13853 -4.91194,-1.13853 -2.4397,0 -3.80593,0.97588 -1.36623,0.94335 -2.21199,3.35052 z m 12.23103,7.41669 q -1.75659,0.58553 -5.56252,1.39876 -3.80593,0.81324 -4.97699,1.59394 -1.78911,1.26865 -1.78911,3.22041 0,1.91923 1.43129,3.31799 1.43129,1.39876 3.64329,1.39876 2.47223,0 4.71675,-1.62646 1.659,-1.23612 2.17947,-3.02523 0.35782,-1.17106 0.35782,-4.45652 z"
         style="font-style:normal;font-variant:normal;font-weight:bold;font-stretch:normal;font-family:Arial;-inkscape-font-specification:'Arial Bold';fill:#355269;fill-opacity:1;stroke-width:1.6655"
         id="path1878" />
      <path
         d="m 867.15078,316.83394 -13.92257,-34.54617 h 9.59616 l 6.50587,17.63091 1.8867,5.88781 q 0.74818,-2.24452 0.94335,-2.96017 0.45542,-1.46382 0.97588,-2.92764 l 6.57093,-17.63091 h 9.40098 l -13.72738,34.54617 z"
         style="font-style:normal;font-variant:normal;font-weight:bold;font-stretch:normal;font-family:Arial;-inkscape-font-specification:'Arial Bold';fill:#355269;fill-opacity:1;stroke-width:1.6655"
         id="path1880" />
      <path
         d="m 901.5343,292.82728 -8.29498,-1.49635 q 1.39876,-5.00952 4.81434,-7.41669 3.41558,-2.40717 10.14916,-2.40717 6.11552,0 9.10822,1.46382 2.9927,1.43129 4.19628,3.67582 1.23612,2.21199 1.23612,8.16486 l -0.0976,10.66963 q 0,4.55411 0.42288,6.73357 0.45541,2.14694 1.659,4.61917 h -9.04316 q -0.35782,-0.91082 -0.87829,-2.69994 -0.22771,-0.81323 -0.3253,-1.07346 -2.34211,2.27705 -5.00952,3.41558 -2.6674,1.13852 -5.69263,1.13852 -5.33482,0 -8.4251,-2.89511 -3.05776,-2.89511 -3.05776,-7.3191 0,-2.92764 1.39876,-5.2047 1.39876,-2.30958 3.90352,-3.51317 2.53729,-1.23611 7.28658,-2.14693 6.40828,-1.20359 8.88051,-2.24453 v -0.91082 q 0,-2.63488 -1.30118,-3.74087 -1.30117,-1.13853 -4.91193,-1.13853 -2.4397,0 -3.80593,0.97588 -1.36623,0.94335 -2.212,3.35052 z m 12.23104,7.41669 q -1.75659,0.58553 -5.56252,1.39876 -3.80594,0.81324 -4.97699,1.59394 -1.78912,1.26865 -1.78912,3.22041 0,1.91923 1.4313,3.31799 1.43129,1.39876 3.64328,1.39876 2.47223,0 4.71676,-1.62646 1.65899,-1.23612 2.17946,-3.02523 0.35783,-1.17106 0.35783,-4.45652 z"
         style="font-style:normal;font-variant:normal;font-weight:bold;font-stretch:normal;font-family:Arial;-inkscape-font-specification:'Arial Bold';fill:#355269;fill-opacity:1;stroke-width:1.6655"
         id="path1882" />
      <path
         d="m 928.53367,306.97755 9.17327,-1.39876 q 0.58553,2.6674 2.37465,4.06616 1.78911,1.36624 5.00952,1.36624 3.54569,0 5.33481,-1.30118 1.20358,-0.91082 1.20358,-2.4397 0,-1.04094 -0.65058,-1.72405 -0.68312,-0.65059 -3.05776,-1.20359 -11.05998,-2.4397 -14.02015,-4.45652 -4.0987,-2.79752 -4.0987,-7.77451 0,-4.48905 3.5457,-7.54681 3.5457,-3.05776 10.99492,-3.05776 7.0914,0 10.53951,2.30958 3.44811,2.30959 4.74928,6.83117 l -8.62027,1.59393 q -0.553,-2.01682 -2.11441,-3.09028 -1.52888,-1.07347 -4.39146,-1.07347 -3.61076,0 -5.17217,1.00841 -1.04094,0.71564 -1.04094,1.85417 0,0.97588 0.91082,1.659 1.23612,0.91082 8.52269,2.56981 7.31911,1.659 10.21422,4.06617 2.86258,2.4397 2.86258,6.79864 0,4.74928 -3.96858,8.16486 -3.96858,3.41558 -11.74309,3.41558 -7.05887,0 -11.1901,-2.86258 -4.0987,-2.86258 -5.36734,-7.77451 z"
         style="font-style:normal;font-variant:normal;font-weight:bold;font-stretch:normal;font-family:Arial;-inkscape-font-specification:'Arial Bold';fill:#355269;fill-opacity:1;stroke-width:1.6655"
         id="path1884" />
      <path
         d="m 998.92715,292.50199 -9.01063,1.62647 q -0.45541,-2.69994 -2.08188,-4.06617 -1.59393,-1.36624 -4.16375,-1.36624 -3.41558,0 -5.46493,2.37465 -2.01682,2.34211 -2.01682,7.8721 0,6.14805 2.04935,8.68533 2.08188,2.53729 5.56252,2.53729 2.60234,0 4.26134,-1.46382 1.659,-1.49635 2.34211,-5.1071 l 8.9781,1.52888 q -1.39876,6.18057 -5.36734,9.33592 -3.96858,3.15534 -10.6371,3.15534 -7.57933,0 -12.10091,-4.78181 -4.48905,-4.78181 -4.48905,-13.23944 0,-8.55522 4.52158,-13.30451 4.52158,-4.78181 12.23103,-4.78181 6.31069,0 10.01904,2.73246 3.74087,2.69994 5.36734,8.26246 z"
         style="font-style:normal;font-variant:normal;font-weight:bold;font-stretch:normal;font-family:Arial;-inkscape-font-specification:'Arial Bold';fill:#355269;fill-opacity:1;stroke-width:1.6655"
         id="path1886" />
      <path
         d="m 1014.6063,316.83394 h -9.1407 v -34.54617 h 8.4901 v 4.91194 q 2.1795,-3.48065 3.9036,-4.58664 1.7566,-1.106 3.9686,-1.106 3.1228,0 6.0179,1.72405 l -2.8301,7.96969 q -2.3096,-1.49635 -4.2938,-1.49635 -1.9193,0 -3.253,1.07347 -1.3337,1.04094 -2.1144,3.80594 -0.7482,2.76499 -0.7482,11.58044 z"
         style="font-style:normal;font-variant:normal;font-weight:bold;font-stretch:normal;font-family:Arial;-inkscape-font-specification:'Arial Bold';fill:#355269;fill-opacity:1;stroke-width:1.6655"
         id="path1888" />
      <path
         d="m 1031.7818,277.60355 v -8.45763 h 9.1407 v 8.45763 z m 0,39.23039 v -34.54617 h 9.1407 v 34.54617 z"
         style="font-style:normal;font-variant:normal;font-weight:bold;font-stretch:normal;font-family:Arial;-inkscape-font-specification:'Arial Bold';fill:#355269;fill-opacity:1;stroke-width:1.6655"
         id="path1890" />
      <path
         d="m 1050.0308,282.28777 h 8.5227 v 5.07458 q 1.659,-2.60235 4.489,-4.22881 2.8301,-1.62647 6.2782,-1.62647 6.0179,0 10.2142,4.71675 4.1963,4.71676 4.1963,13.14186 0,8.65281 -4.2288,13.46715 -4.2289,4.78181 -10.2468,4.78181 -2.8626,0 -5.2047,-1.13852 -2.3096,-1.13853 -4.8794,-3.90352 v 17.4032 h -9.1407 z m 9.0431,16.68756 q 0,5.82275 2.3096,8.62028 2.3096,2.76499 5.6276,2.76499 3.1879,0 5.3023,-2.53729 2.1144,-2.56982 2.1144,-8.39257 0,-5.4324 -2.1795,-8.06728 -2.1795,-2.63488 -5.3999,-2.63488 -3.3505,0 -5.5625,2.60235 -2.212,2.56982 -2.212,7.6444 z"
         style="font-style:normal;font-variant:normal;font-weight:bold;font-stretch:normal;font-family:Arial;-inkscape-font-specification:'Arial Bold';fill:#355269;fill-opacity:1;stroke-width:1.6655"
         id="path1892" />
      <path
         d="m 1106.827,282.28777 v 7.28658 h -6.2456 v 13.92256 q 0,4.22881 0.1626,4.94446 0.1952,0.68311 0.8133,1.13853 0.6505,0.45541 1.5614,0.45541 1.2686,0 3.6758,-0.8783 l 0.7807,7.0914 q -3.1879,1.36623 -7.2215,1.36623 -2.4723,0 -4.4566,-0.81323 -1.9842,-0.84576 -2.9276,-2.14694 -0.9108,-1.3337 -1.2686,-3.57822 -0.2928,-1.59394 -0.2928,-6.44082 v -15.06108 h -4.1963 v -7.28658 h 4.1963 v -6.86369 l 9.1733,-5.33481 v 12.1985 z"
         style="font-style:normal;font-variant:normal;font-weight:bold;font-stretch:normal;font-family:Arial;-inkscape-font-specification:'Arial Bold';fill:#355269;fill-opacity:1;stroke-width:1.6655"
         id="path1894" />
      <path
         d="m 1112.9425,307.69319 h 9.1408 v 6.5384 q 0,3.96858 -0.6832,6.24564 -0.6831,2.30958 -2.6023,4.13122 -1.8867,1.82165 -4.8144,2.86259 l -1.7891,-3.77341 q 2.765,-0.91082 3.9361,-2.50476 1.171,-1.59394 1.2361,-4.35893 h -4.424 z"
         style="font-style:normal;font-variant:normal;font-weight:bold;font-stretch:normal;font-family:Arial;-inkscape-font-specification:'Arial Bold';fill:#355269;fill-opacity:1;stroke-width:1.6655"
         id="path1896" />
      <path
         d="M 435.12852,401.17424 V 361.5535 h -14.15026 v -8.06728 h 37.89669 v 8.06728 h -14.11774 v 39.62074 z"
         style="font-style:normal;font-variant:normal;font-weight:bold;font-stretch:normal;font-family:Arial;-inkscape-font-specification:'Arial Bold';fill:#355269;fill-opacity:1;stroke-width:1.6655"
         id="path1898" />
      <path
         d="m 455.75213,366.62808 h 9.72627 l 8.26246,24.52712 8.06728,-24.52712 h 9.46604 l -12.19851,33.24499 -2.17947,6.01793 q -1.20358,3.02523 -2.30958,4.61917 -1.07347,1.59393 -2.50476,2.56981 -1.39876,1.00841 -3.48064,1.56141 -2.04935,0.553 -4.6517,0.553 -2.63487,0 -5.17216,-0.553 l -0.81323,-7.15645 q 2.14693,0.42288 3.87099,0.42288 3.18787,0 4.71675,-1.8867 1.52888,-1.85418 2.34212,-4.74929 z"
         style="font-style:normal;font-variant:normal;font-weight:bold;font-stretch:normal;font-family:Arial;-inkscape-font-specification:'Arial Bold';fill:#355269;fill-opacity:1;stroke-width:1.6655"
         id="path1900" />
      <path
         d="m 496.86922,366.62808 h 8.52269 v 5.07457 q 1.659,-2.60234 4.48905,-4.22881 2.83005,-1.62647 6.27816,-1.62647 6.01793,0 10.21422,4.71676 4.19628,4.71675 4.19628,13.14185 0,8.65281 -4.22881,13.46715 -4.22882,4.78182 -10.24675,4.78182 -2.86258,0 -5.20469,-1.13853 -2.30959,-1.13853 -4.8794,-3.90352 v 17.4032 h -9.14075 z m 9.04316,16.68755 q 0,5.82275 2.30958,8.62028 2.30959,2.76499 5.62758,2.76499 3.18788,0 5.30228,-2.53729 2.11441,-2.56981 2.11441,-8.39257 0,-5.4324 -2.17947,-8.06728 -2.17946,-2.63487 -5.39987,-2.63487 -3.35052,0 -5.56252,2.60234 -2.21199,2.56982 -2.21199,7.6444 z"
         style="font-style:normal;font-variant:normal;font-weight:bold;font-stretch:normal;font-family:Arial;-inkscape-font-specification:'Arial Bold';fill:#355269;fill-opacity:1;stroke-width:1.6655"
         id="path1902" />
      <path
         d="m 557.82922,390.17932 9.10821,1.52888 q -1.75658,5.00952 -5.56251,7.6444 -3.77341,2.60235 -9.46604,2.60235 -9.01063,0 -13.33704,-5.88781 -3.41558,-4.71676 -3.41558,-11.90575 0,-8.58774 4.48905,-13.43462 4.48905,-4.8794 11.35274,-4.8794 7.70946,0 12.16598,5.10711 4.45652,5.07458 4.26134,15.58156 h -22.90066 q 0.0976,4.06616 2.212,6.34322 2.11441,2.24452 5.26975,2.24452 2.14694,0 3.61076,-1.17105 1.46382,-1.17106 2.212,-3.77341 z m 0.52047,-9.23833 q -0.0976,-3.96858 -2.04935,-6.01793 -1.95176,-2.08188 -4.74929,-2.08188 -2.9927,0 -4.94446,2.17947 -1.95176,2.17946 -1.91923,5.92034 z"
         style="font-style:normal;font-variant:normal;font-weight:bold;font-stretch:normal;font-family:Arial;-inkscape-font-specification:'Arial Bold';fill:#355269;fill-opacity:1;stroke-width:1.6655"
         id="path1904" />
      <path
         d="m 571.6542,391.31785 9.17327,-1.39876 q 0.58553,2.66741 2.37465,4.06617 1.78911,1.36623 5.00951,1.36623 3.5457,0 5.33482,-1.30117 1.20358,-0.91083 1.20358,-2.43971 0,-1.04093 -0.65058,-1.72405 -0.68312,-0.65059 -3.05776,-1.20359 -11.05998,-2.4397 -14.02015,-4.45652 -4.0987,-2.79752 -4.0987,-7.77451 0,-4.48905 3.5457,-7.54681 3.5457,-3.05776 10.99492,-3.05776 7.0914,0 10.53951,2.30959 3.44811,2.30958 4.74928,6.83116 l -8.62027,1.59394 q -0.553,-2.01682 -2.11441,-3.09029 -1.52888,-1.07347 -4.39146,-1.07347 -3.61076,0 -5.17217,1.00841 -1.04094,0.71565 -1.04094,1.85417 0,0.97588 0.91082,1.659 1.23612,0.91082 8.52269,2.56982 7.3191,1.65899 10.21422,4.06617 2.86258,2.4397 2.86258,6.79863 0,4.74928 -3.96858,8.16487 -3.96858,3.41558 -11.7431,3.41558 -7.05886,0 -11.19009,-2.86259 -4.0987,-2.86258 -5.36734,-7.77451 z"
         style="font-style:normal;font-variant:normal;font-weight:bold;font-stretch:normal;font-family:Arial;-inkscape-font-specification:'Arial Bold';fill:#355269;fill-opacity:1;stroke-width:1.6655"
         id="path1906" />
      <path
         d="m 642.0477,376.84229 -9.01063,1.62647 q -0.45541,-2.69994 -2.08188,-4.06617 -1.59394,-1.36623 -4.16376,-1.36623 -3.41558,0 -5.46493,2.37464 -2.01682,2.34211 -2.01682,7.8721 0,6.14805 2.04935,8.68534 2.08188,2.53729 5.56252,2.53729 2.60235,0 4.26134,-1.46382 1.659,-1.49635 2.34212,-5.10711 l 8.9781,1.52888 q -1.39876,6.18057 -5.36735,9.33592 -3.96858,3.15535 -10.63709,3.15535 -7.57934,0 -12.10092,-4.78182 -4.48905,-4.78181 -4.48905,-13.23944 0,-8.55522 4.52158,-13.3045 4.52158,-4.78182 12.23104,-4.78182 6.31069,0 10.01903,2.73247 3.74088,2.69993 5.36735,8.26245 z"
         style="font-style:normal;font-variant:normal;font-weight:bold;font-stretch:normal;font-family:Arial;-inkscape-font-specification:'Arial Bold';fill:#355269;fill-opacity:1;stroke-width:1.6655"
         id="path1908" />
      <path
         d="m 657.72685,401.17424 h -9.14075 v -34.54616 h 8.49016 v 4.91193 q 2.17947,-3.48064 3.90352,-4.58664 1.75659,-1.106 3.96858,-1.106 3.12282,0 6.01793,1.72406 l -2.83005,7.96969 q -2.30958,-1.49635 -4.29387,-1.49635 -1.91923,0 -3.25294,1.07347 -1.3337,1.04093 -2.11441,3.80593 -0.74817,2.76499 -0.74817,11.58045 z"
         style="font-style:normal;font-variant:normal;font-weight:bold;font-stretch:normal;font-family:Arial;-inkscape-font-specification:'Arial Bold';fill:#355269;fill-opacity:1;stroke-width:1.6655"
         id="path1910" />
      <path
         d="m 674.90234,361.94385 v -8.45763 h 9.14075 v 8.45763 z m 0,39.23039 v -34.54616 h 9.14075 v 34.54616 z"
         style="font-style:normal;font-variant:normal;font-weight:bold;font-stretch:normal;font-family:Arial;-inkscape-font-specification:'Arial Bold';fill:#355269;fill-opacity:1;stroke-width:1.6655"
         id="path1912" />
      <path
         d="m 693.15131,366.62808 h 8.52269 v 5.07457 q 1.65899,-2.60234 4.48905,-4.22881 2.83005,-1.62647 6.27816,-1.62647 6.01793,0 10.21422,4.71676 4.19628,4.71675 4.19628,13.14185 0,8.65281 -4.22881,13.46715 -4.22882,4.78182 -10.24675,4.78182 -2.86258,0 -5.20469,-1.13853 -2.30959,-1.13853 -4.8794,-3.90352 v 17.4032 h -9.14075 z m 9.04316,16.68755 q 0,5.82275 2.30958,8.62028 2.30958,2.76499 5.62758,2.76499 3.18787,0 5.30228,-2.53729 2.11441,-2.56981 2.11441,-8.39257 0,-5.4324 -2.17947,-8.06728 -2.17946,-2.63487 -5.39987,-2.63487 -3.35052,0 -5.56252,2.60234 -2.21199,2.56982 -2.21199,7.6444 z"
         style="font-style:normal;font-variant:normal;font-weight:bold;font-stretch:normal;font-family:Arial;-inkscape-font-specification:'Arial Bold';fill:#355269;fill-opacity:1;stroke-width:1.6655"
         id="path1914" />
      <path
         d="m 749.94755,366.62808 v 7.28657 h -6.24563 v 13.92256 q 0,4.22882 0.16264,4.94446 0.19518,0.68312 0.81324,1.13853 0.65058,0.45541 1.5614,0.45541 1.26865,0 3.67582,-0.87829 l 0.7807,7.09139 q -3.18787,1.36624 -7.22151,1.36624 -2.47223,0 -4.45652,-0.81324 -1.98429,-0.84576 -2.92764,-2.14693 -0.91082,-1.33371 -1.26865,-3.57823 -0.29276,-1.59394 -0.29276,-6.44081 v -15.06109 h -4.19629 v -7.28657 h 4.19629 v -6.8637 l 9.17328,-5.33481 v 12.19851 z"
         style="font-style:normal;font-variant:normal;font-weight:bold;font-stretch:normal;font-family:Arial;-inkscape-font-specification:'Arial Bold';fill:#355269;fill-opacity:1;stroke-width:1.6655"
         id="path1916" />
      <path
         d="m 794.80552,390.17932 9.10822,1.52888 q -1.75659,5.00952 -5.56252,7.6444 -3.77341,2.60235 -9.46604,2.60235 -9.01063,0 -13.33703,-5.88781 -3.41558,-4.71676 -3.41558,-11.90575 0,-8.58774 4.48905,-13.43462 4.48905,-4.8794 11.35274,-4.8794 7.70945,0 12.16597,5.10711 4.45652,5.07458 4.26135,15.58156 h -22.90066 q 0.0976,4.06616 2.21199,6.34322 2.11441,2.24452 5.26976,2.24452 2.14693,0 3.61075,-1.17105 1.46383,-1.17106 2.212,-3.77341 z m 0.52047,-9.23833 q -0.0976,-3.96858 -2.04935,-6.01793 -1.95176,-2.08188 -4.74928,-2.08188 -2.9927,0 -4.94446,2.17947 -1.95177,2.17946 -1.91924,5.92034 z"
         style="font-style:normal;font-variant:normal;font-weight:bold;font-stretch:normal;font-family:Arial;-inkscape-font-specification:'Arial Bold';fill:#355269;fill-opacity:1;stroke-width:1.6655"
         id="path1918" />
      <path
         d="m 827.6927,366.62808 v 7.28657 h -6.24564 v 13.92256 q 0,4.22882 0.16265,4.94446 0.19518,0.68312 0.81323,1.13853 0.65059,0.45541 1.56141,0.45541 1.26865,0 3.67582,-0.87829 l 0.7807,7.09139 q -3.18787,1.36624 -7.22151,1.36624 -2.47223,0 -4.45652,-0.81324 -1.98429,-0.84576 -2.92764,-2.14693 -0.91083,-1.33371 -1.26865,-3.57823 -0.29276,-1.59394 -0.29276,-6.44081 v -15.06109 h -4.19629 v -7.28657 h 4.19629 v -6.8637 l 9.17327,-5.33481 v 12.19851 z"
         style="font-style:normal;font-variant:normal;font-weight:bold;font-stretch:normal;font-family:Arial;-inkscape-font-specification:'Arial Bold';fill:#355269;fill-opacity:1;stroke-width:1.6655"
         id="path1920" />
      <path
         d="m 852.61018,401.17424 v -47.68802 h 15.45144 q 8.78292,0 11.45033,0.71565 4.0987,1.07346 6.86369,4.68422 2.76499,3.57823 2.76499,9.27087 0,4.39146 -1.59393,7.38416 -1.59394,2.9927 -4.06617,4.71675 -2.4397,1.69153 -4.97699,2.24453 -3.44811,0.68311 -9.98651,0.68311 h -6.27817 v 17.98873 z m 9.62868,-39.62074 v 13.53221 h 5.26976 q 5.69263,0 7.61187,-0.74818 1.91923,-0.74817 2.9927,-2.34211 1.10599,-1.59394 1.10599,-3.70835 0,-2.60234 -1.52888,-4.29387 -1.52887,-1.69153 -3.87099,-2.11441 -1.72405,-0.32529 -6.92875,-0.32529 z"
         style="font-style:normal;font-variant:normal;font-weight:bold;font-stretch:normal;font-family:Arial;-inkscape-font-specification:'Arial Bold';fill:#355269;fill-opacity:1;stroke-width:1.6655"
         id="path1922" />
      <path
         d="m 892.65381,366.62808 h 9.72627 l 8.26245,24.52712 8.06728,-24.52712 h 9.46604 l -12.1985,33.24499 -2.17947,6.01793 q -1.20358,3.02523 -2.30958,4.61917 -1.07347,1.59393 -2.50476,2.56981 -1.39876,1.00841 -3.48064,1.56141 -2.04935,0.553 -4.6517,0.553 -2.63488,0 -5.17217,-0.553 l -0.81323,-7.15645 q 2.14694,0.42288 3.87099,0.42288 3.18788,0 4.71676,-1.8867 1.52888,-1.85418 2.34211,-4.74929 z"
         style="font-style:normal;font-variant:normal;font-weight:bold;font-stretch:normal;font-family:Arial;-inkscape-font-specification:'Arial Bold';fill:#355269;fill-opacity:1;stroke-width:1.6655"
         id="path1924" />
      <path
         d="m 949.8729,366.62808 v 7.28657 h -6.24563 v 13.92256 q 0,4.22882 0.16265,4.94446 0.19517,0.68312 0.81323,1.13853 0.65059,0.45541 1.56141,0.45541 1.26864,0 3.67581,-0.87829 l 0.78071,7.09139 q -3.18788,1.36624 -7.22152,1.36624 -2.47223,0 -4.45652,-0.81324 -1.98429,-0.84576 -2.92764,-2.14693 -0.91082,-1.33371 -1.26864,-3.57823 -0.29277,-1.59394 -0.29277,-6.44081 v -15.06109 h -4.19628 v -7.28657 h 4.19628 v -6.8637 l 9.17328,-5.33481 v 12.19851 z"
         style="font-style:normal;font-variant:normal;font-weight:bold;font-stretch:normal;font-family:Arial;-inkscape-font-specification:'Arial Bold';fill:#355269;fill-opacity:1;stroke-width:1.6655"
         id="path1926" />
      <path
         d="m 965.32433,353.48622 v 17.53332 q 4.42399,-5.17217 10.57203,-5.17217 3.15535,0 5.69264,1.17106 2.53729,1.17106 3.80593,2.9927 1.30118,1.82164 1.75659,4.03364 0.48794,2.21199 0.48794,6.86369 v 20.26578 h -9.14075 v -18.24896 q 0,-5.4324 -0.52047,-6.89622 -0.52047,-1.46382 -1.85417,-2.30959 -1.30117,-0.87829 -3.28546,-0.87829 -2.27706,0 -4.06617,1.106 -1.78912,1.106 -2.63488,3.35052 -0.81323,2.212 -0.81323,6.57093 v 17.30561 h -9.14075 v -47.68802 z"
         style="font-style:normal;font-variant:normal;font-weight:bold;font-stretch:normal;font-family:Arial;-inkscape-font-specification:'Arial Bold';fill:#355269;fill-opacity:1;stroke-width:1.6655"
         id="path1928" />
      <path
         d="m 994.79592,383.41322 q 0,-4.55411 2.24452,-8.81545 2.24453,-4.26135 6.34326,-6.50587 4.1312,-2.24453 9.2058,-2.24453 7.8395,0 12.8491,5.10711 5.0095,5.07458 5.0095,12.84909 0,7.83957 -5.0746,13.01174 -5.042,5.13964 -12.719,5.13964 -4.7493,0 -9.0757,-2.14694 -4.29383,-2.14694 -6.53836,-6.27816 -2.24452,-4.16376 -2.24452,-10.11663 z m 9.36848,0.48794 q 0,5.13964 2.4397,7.8721 2.4397,2.73247 6.0179,2.73247 3.5782,0 5.9854,-2.73247 2.4397,-2.73246 2.4397,-7.93716 0,-5.07458 -2.4397,-7.80704 -2.4072,-2.73247 -5.9854,-2.73247 -3.5782,0 -6.0179,2.73247 -2.4397,2.73246 -2.4397,7.8721 z"
         style="font-style:normal;font-variant:normal;font-weight:bold;font-stretch:normal;font-family:Arial;-inkscape-font-specification:'Arial Bold';fill:#355269;fill-opacity:1;stroke-width:1.6655"
         id="path1930" />
      <path
         d="m 1069.0279,401.17424 h -9.1408 v -17.6309 q 0,-5.59505 -0.5855,-7.22152 -0.5855,-1.65899 -1.9192,-2.56982 -1.3012,-0.91082 -3.1554,-0.91082 -2.3746,0 -4.2613,1.30118 -1.8867,1.30117 -2.6024,3.44811 -0.6831,2.14693 -0.6831,7.93716 v 15.64661 h -9.1407 v -34.54616 h 8.4901 v 5.07457 q 4.5216,-5.85528 11.3853,-5.85528 3.0252,0 5.53,1.106 2.5048,1.07347 3.7734,2.76499 1.3012,1.69153 1.7891,3.83847 0.5205,2.14693 0.5205,6.14804 z"
         style="font-style:normal;font-variant:normal;font-weight:bold;font-stretch:normal;font-family:Arial;-inkscape-font-specification:'Arial Bold';fill:#355269;fill-opacity:1;stroke-width:1.6655"
         id="path1932" />
    </g>
  </g>
</svg>
