<?xml version="1.0" encoding="UTF-8" standalone="no"?>
<svg
   xmlns:dc="http://purl.org/dc/elements/1.1/"
   xmlns:cc="http://creativecommons.org/ns#"
   xmlns:rdf="http://www.w3.org/1999/02/22-rdf-syntax-ns#"
   xmlns:svg="http://www.w3.org/2000/svg"
   xmlns="http://www.w3.org/2000/svg"
   id="logo"
   version="1.1"
   viewBox="0 0 1230 600"
   width="1230"
   height="600">
  <metadata
     id="metadata1163">
    <rdf:RDF>
      <cc:Work
         rdf:about="">
        <dc:format>image/svg+xml</dc:format>
        <dc:type
           rdf:resource="http://purl.org/dc/dcmitype/StillImage" />
        <dc:title></dc:title>
      </cc:Work>
    </rdf:RDF>
  </metadata>
  <defs
     id="defs1161" />
  <desc
     id="desc1142">RB webstudio - spécialiste Python - Javascript/Typescript</desc>
  <g
     id="layer4"
     style="display:inline">
    <rect
       style="fill:#eeeeee;stroke-width:0.850738;stroke-linecap:square"
       id="rect1772"
       width="1230"
       height="600"
       x="0"
       y="0" />
  </g>
  <g
     id="layer3"
     style="display:inline" />
  <g
     id="layer5">
    <g
       id="g1801"
       transform="translate(66.41619)">
      <g
         transform="matrix(4.0985884,0,0,4.0985884,-226.33251,-157.07456)"
         id="g1156"
         style="display:inline">
        <circle
           cx="97.246002"
           cy="111.52"
           r="33.073002"
           fill="#355269"
           stroke-width="0.177"
           style="paint-order:markers fill stroke"
           id="circle1144" />
        <g
           transform="matrix(0.33371,0,0,0.33371,-78.371,192.62)"
           fill="#eeeeee"
           id="g1154">
          <g
             transform="translate(243.55,81.615)"
             stroke-width="0.67039"
             aria-label="rb"
             id="g1150">
            <path
               d="m 251.15,-309.59 v 27.653 h -25.077 v -31.927 q 0,-10.81 2.0112,-16.843 2.0112,-6.0963 6.8505,-10.81 3.6452,-3.6452 8.4846,-5.6564 4.9022,-2.074 9.8044,-2.074 2.3882,0 4.7136,0.18855 2.3254,0.18854 4.5251,0.56563 v 26.396 q -0.43994,-0.0628 -1.3198,-0.18855 -2.074,-0.31424 -2.6396,-0.31424 -4.0852,0 -5.7192,2.6396 -1.6341,2.6396 -1.6341,10.37 z"
               id="path1146" />
            <path
               d="m 270.76,-373.69 h 24.448 v 51.599 q 0,9.553 2.2626,13.324 2.2626,3.771 7.5418,3.7709 3.8338,0 6.662,-2.8282 2.8282,-2.891 2.8282,-6.7876 0,-4.2109 -2.7653,-7.039 -2.7653,-2.891 -6.7248,-2.891 -1.0056,0 -2.1368,0.31425 -1.1313,0.25139 -3.2681,1.1313 v -26.019 q 0.62849,-0.0629 2.6396,-0.18855 2.0112,-0.18855 3.1424,-0.18855 14.141,0 24.008,10.181 9.9301,10.119 9.9301,24.7 0,6.8505 -2.514,13.135 -2.5139,6.222 -7.2276,11.061 -4.9022,4.965 -11.187,7.6675 -6.222,2.6396 -13.135,2.6396 -10.181,0 -18.415,-5.2164 -8.1703,-5.2793 -12.13,-14.267 -2.074,-4.7765 -3.0167,-9.8672 -0.94273,-5.1536 -0.94273,-12.758 v -4.9022 z"
               id="path1148" />
          </g>
          <path
             d="m 542.38,-288.15 h -31.744 l 15.872,-17.36 z"
             stroke-width="0.44511"
             style="paint-order:markers fill stroke"
             id="path1152" />
        </g>
      </g>
      <text
         xml:space="preserve"
         style="font-size:66.6201px;line-height:1.25;font-family:'DejaVu Sans';-inkscape-font-specification:'DejaVu Sans';text-align:start;text-anchor:start;fill:#355269;fill-opacity:1;stroke-width:1.6655"
         x="353.13077"
         y="232.49364"
         id="text1777"><tspan
           id="tspan1775"
           x="353.13077"
           y="232.49364"
           style="font-style:normal;font-variant:normal;font-weight:bold;font-stretch:normal;font-family:Arial;-inkscape-font-specification:'Arial Bold';fill:#355269;fill-opacity:1;stroke-width:1.6655">RB Webstudio </tspan><tspan
           x="353.13077"
           y="316.83395"
           id="tspan1779"
           style="font-style:normal;font-variant:normal;font-weight:bold;font-stretch:normal;font-family:Arial;-inkscape-font-specification:'Arial Bold';fill:#355269;fill-opacity:1;stroke-width:1.6655">spécialiste Javascript, </tspan><tspan
           x="353.13077"
           y="401.17426"
           id="tspan1781"
           style="font-style:normal;font-variant:normal;font-weight:bold;font-stretch:normal;font-family:Arial;-inkscape-font-specification:'Arial Bold';fill:#355269;fill-opacity:1;stroke-width:1.6655">Typescript et Python</tspan></text>
    </g>
  </g>
</svg>
