<?xml version="1.0" encoding="UTF-8" standalone="no"?>
<svg
   xmlns:dc="http://purl.org/dc/elements/1.1/"
   xmlns:cc="http://creativecommons.org/ns#"
   xmlns:rdf="http://www.w3.org/1999/02/22-rdf-syntax-ns#"
   xmlns:svg="http://www.w3.org/2000/svg"
   xmlns="http://www.w3.org/2000/svg"
   xmlns:sodipodi="http://sodipodi.sourceforge.net/DTD/sodipodi-0.dtd"
   xmlns:inkscape="http://www.inkscape.org/namespaces/inkscape"
   width="147.71915mm"
   height="41.551441mm"
   viewBox="0 0 147.71915 41.551441"
   version="1.1"
   id="svg3001"
   inkscape:version="1.0.1 (3bc2e813f5, 2020-09-07)"
   sodipodi:docname="logo.svg">
  <defs
     id="defs2995" />
  <sodipodi:namedview
     id="base"
     pagecolor="#ffffff"
     bordercolor="#666666"
     borderopacity="1.0"
     inkscape:pageopacity="0.0"
     inkscape:pageshadow="2"
     inkscape:zoom="0.98994949"
     inkscape:cx="260.61404"
     inkscape:cy="281.86387"
     inkscape:document-units="mm"
     inkscape:current-layer="layer1"
     inkscape:document-rotation="0"
     showgrid="false"
     fit-margin-top="0"
     fit-margin-left="0"
     fit-margin-right="0"
     fit-margin-bottom="0"
     inkscape:window-width="1920"
     inkscape:window-height="1016"
     inkscape:window-x="0"
     inkscape:window-y="27"
     inkscape:window-maximized="1" />
  <metadata
     id="metadata2998">
    <rdf:RDF>
      <cc:Work
         rdf:about="">
        <dc:format>image/svg+xml</dc:format>
        <dc:type
           rdf:resource="http://purl.org/dc/dcmitype/StillImage" />
        <dc:title></dc:title>
      </cc:Work>
    </rdf:RDF>
  </metadata>
  <g
     inkscape:label="Calque 1"
     inkscape:groupmode="layer"
     id="layer1"
     transform="translate(-5.1075068,-17.662743)">
    <g
       id="g2963"
       style="display:inline"
       transform="translate(-88.726642,-87.495635)">
      <g
         aria-label="RB"
         id="text2399"
         style="font-weight:bold;font-size:7.78891px;line-height:1.25;font-family:'Neo Sans Std';-inkscape-font-specification:'Neo Sans Std Bold';text-align:center;letter-spacing:0px;word-spacing:0px;text-anchor:middle;display:inline;fill:#585858;fill-opacity:1;stroke-width:0.194723">
        <path
           d="m 143.00809,119.44222 c 0,-0.0234 -0.008,-0.0545 -0.0234,-0.0857 l -1.17613,-2.19647 c 0.56859,-0.22588 1.00477,-0.73216 1.00477,-1.55779 v -0.10125 c 0,-1.37864 -1.02034,-1.82261 -2.34446,-1.82261 -0.5608,0 -1.22286,0.0467 -1.58115,0.10126 -0.24145,0.0389 -0.3505,0.10904 -0.3505,0.37387 v 5.22635 c 0,0.0857 0.0701,0.15578 0.15578,0.15578 h 1.01256 c 0.0857,0 0.15578,-0.0701 0.15578,-0.15578 v -1.97838 c 0.14799,0 0.38944,0.0156 0.55301,0.0156 l 0.0857,-0.008 1.04371,1.97059 c 0.0389,0.0779 0.0701,0.15578 0.15578,0.15578 h 1.1917 c 0.0857,0 0.11684,-0.0389 0.11684,-0.0935 z m -1.51884,-3.83994 c 0,0.52965 -0.25704,0.73995 -1.07487,0.73995 -0.0857,0 -0.46734,-0.008 -0.55301,-0.0156 v -1.49547 c 0.0935,-0.008 0.49849,-0.0234 0.60753,-0.0234 0.65427,0 1.02035,0.21809 1.02035,0.69322 z"
           style="fill:#585858;fill-opacity:1;stroke-width:0.194723"
           id="path2460" />
        <path
           d="m 148.14096,117.86107 v -0.11684 c 0,-0.53743 -0.2804,-0.95024 -0.69321,-1.15276 0.41281,-0.20251 0.65427,-0.63869 0.65427,-1.14497 v -0.1402 c 0,-1.23843 -0.98919,-1.62788 -2.4613,-1.62788 -0.49849,0 -1.12939,0.0467 -1.39421,0.0857 -0.30377,0.0467 -0.41281,0.15578 -0.41281,0.50628 v 4.73566 c 0,0.3505 0.11683,0.45175 0.42839,0.50628 0.30377,0.0545 0.9113,0.0935 1.42537,0.0935 1.34748,0 2.4535,-0.37386 2.4535,-1.74471 z m -1.32411,-2.35225 c 0,0.33492 -0.17914,0.61532 -0.79447,0.61532 h -0.87236 v -1.34748 c 0.10905,-0.008 0.46734,-0.008 0.59196,-0.008 0.80226,0 1.07487,0.19472 1.07487,0.62311 z m 0.0312,2.32109 c 0,0.43618 -0.25704,0.68543 -1.0593,0.68543 -0.10904,0 -0.51406,-0.008 -0.63869,-0.008 v -1.45653 h 0.87236 c 0.62311,0 0.82563,0.31935 0.82563,0.69321 z"
           style="fill:#585858;fill-opacity:1;stroke-width:0.194723"
           id="path2462" />
      </g>
      <g
         aria-label="web"
         id="text2403"
         style="font-weight:bold;font-size:18.9941px;line-height:1.25;font-family:'Neo Sans Std';-inkscape-font-specification:'Neo Sans Std Bold';text-align:center;letter-spacing:0px;word-spacing:0px;text-anchor:middle;display:inline;fill:#585858;fill-opacity:1;stroke-width:0.474853">
        <path
           d="m 153.48159,121.66395 c 0,-0.17095 -0.11397,-0.3229 -0.28491,-0.3229 h -2.29829 c -0.22793,0 -0.36089,0.038 -0.39887,0.3229 l -1.12066,7.21776 c -0.019,0.15195 -0.076,0.24692 -0.11396,0.24692 -0.057,0 -0.11397,-0.076 -0.15195,-0.24692 l -1.27261,-5.01444 c -0.17095,-0.6648 -0.45586,-0.85474 -1.06367,-0.85474 h -1.55751 c -0.60782,0 -0.89273,0.18994 -1.06367,0.85474 l -1.27261,5.01444 c -0.038,0.17095 -0.095,0.24692 -0.15195,0.24692 -0.038,0 -0.095,-0.095 -0.11397,-0.24692 l -1.12065,-7.21776 c -0.038,-0.28491 -0.17095,-0.3229 -0.39887,-0.3229 h -2.29829 c -0.17095,0 -0.28491,0.15195 -0.28491,0.3229 0,0.019 0,0.057 0,0.076 l 1.69047,9.15515 c 0.20894,1.08267 0.87373,1.32959 1.67148,1.32959 h 1.15864 c 0.91172,0 1.40557,-0.49385 1.59551,-1.21562 l 1.2726,-4.95746 c 0.019,-0.095 0.038,-0.095 0.095,-0.095 0.057,0 0.076,0 0.095,0.095 l 1.27261,4.95746 c 0.18994,0.72177 0.68379,1.21562 1.5955,1.21562 h 1.15864 c 0.79776,0 1.46255,-0.24692 1.67148,-1.32959 l 1.69048,-9.15515 c 0,-0.019 0,-0.057 0,-0.076 z"
           style="fill:#585858;fill-opacity:1;stroke-width:0.474853"
           id="path2440" />
        <path
           d="m 164.0043,127.2862 v -1.10165 c 0,-2.86811 -1.57651,-4.99545 -4.69154,-4.99545 -3.02007,0 -4.80551,1.9374 -4.80551,4.99545 v 1.32958 c 0,3.66586 2.46923,4.88149 4.76752,4.88149 1.65249,0 2.67817,-0.15196 3.89379,-0.45586 0.3229,-0.076 0.39888,-0.20894 0.39888,-0.51284 v -1.44355 c 0,-0.20894 -0.15196,-0.30391 -0.36089,-0.30391 -0.019,0 -0.038,0 -0.057,0 -0.75976,0.076 -2.45023,0.17095 -3.64686,0.17095 -1.50054,0 -1.95639,-0.9877 -1.95639,-2.07036 v -0.038 h 6.05911 c 0.24693,0 0.39888,-0.17094 0.39888,-0.45586 z m -3.00107,-1.44355 h -3.45692 v -0.076 c 0,-1.38657 0.70278,-2.10835 1.74745,-2.10835 1.06367,0 1.70947,0.70278 1.70947,2.10835 z"
           style="fill:#585858;fill-opacity:1;stroke-width:0.474853"
           id="path2442" />
        <path
           d="m 175.40073,127.53313 v -1.48154 c 0,-2.98208 -1.55752,-4.86249 -4.76752,-4.86249 -0.37988,0 -1.00669,0.057 -1.55752,0.13296 v -3.28598 c 0,-0.20894 -0.17095,-0.37988 -0.37988,-0.37988 h -2.29829 c -0.20893,0 -0.39887,0.17094 -0.39887,0.37988 v 13.31486 c 0,0.30391 0.076,0.43687 0.58881,0.55083 1.08267,0.26592 2.5832,0.49385 4.04575,0.49385 3.07704,0 4.76752,-1.78545 4.76752,-4.86249 z m -3.07705,0 c 0,1.34858 -0.34189,2.33627 -1.69047,2.33627 -0.62681,0 -1.19663,-0.057 -1.55752,-0.11396 v -5.92616 c 0.45586,-0.057 1.10166,-0.095 1.55752,-0.095 1.34858,0 1.69047,0.98769 1.69047,2.31728 z"
           style="fill:#585858;fill-opacity:1;stroke-width:0.474853"
           id="path2444" />
      </g>
      <g
         aria-label="studio"
         id="text2407"
         style="font-weight:bold;font-size:18.9942px;line-height:1.25;font-family:'Neo Sans Std';-inkscape-font-specification:'Neo Sans Std Bold';text-align:center;letter-spacing:0px;word-spacing:0px;text-anchor:middle;display:inline;fill:#0189c7;fill-opacity:1;stroke-width:0.474858">
        <path
           d="m 184.67019,129.27002 c 0,-1.02568 -0.34189,-2.01338 -1.91841,-2.9251 l -2.35528,-1.34859 c -0.37989,-0.22793 -0.58882,-0.37989 -0.58882,-0.6648 0,-0.43687 0.26592,-0.55083 1.00669,-0.55083 0.9687,0 2.60221,0.17095 3.15304,0.24692 0.019,0 0.038,0 0.057,0 0.18994,0 0.3229,-0.13296 0.3229,-0.36089 v -1.53853 c 0,-0.22793 -0.13296,-0.37988 -0.36089,-0.43686 -0.9687,-0.24693 -1.88042,-0.43687 -3.38097,-0.43687 -2.6212,0 -3.89381,1.02569 -3.89381,2.9441 0,1.23462 0.62681,2.20333 1.69049,2.81114 l 2.46924,1.42457 c 0.53184,0.3039 0.70279,0.51284 0.70279,0.79775 0,0.49385 -0.20894,0.74078 -1.12066,0.74078 -0.60781,0 -2.20333,-0.13296 -3.22901,-0.26592 -0.019,0 -0.057,0 -0.076,0 -0.22793,0 -0.36089,0.17095 -0.36089,0.36089 v 1.53853 c 0,0.22793 0.13296,0.37988 0.36089,0.43687 0.9687,0.26591 2.41226,0.41787 3.45694,0.41787 2.77316,0 4.06476,-1.40557 4.06476,-3.19103 z"
           style="fill:#0189c7;fill-opacity:1;stroke-width:0.474858"
           id="path2447" />
        <path
           d="m 192.76168,131.92921 v -1.48155 c 0,-0.20893 -0.15195,-0.3229 -0.39888,-0.3229 h -0.93071 c -0.56983,0 -0.62681,-0.13296 -0.62681,-0.89273 v -5.52731 h 1.55752 c 0.20894,0 0.37989,-0.17095 0.37989,-0.37988 v -1.53853 c 0,-0.20894 -0.17095,-0.37989 -0.37989,-0.37989 h -1.55752 v -2.01338 c 0,-0.18994 -0.15196,-0.3229 -0.3419,-0.3229 -0.019,0 -0.038,0 -0.057,0 l -2.31729,0.39888 c -0.20894,0.038 -0.37989,0.17094 -0.37989,0.37988 v 1.55752 h -1.51953 c -0.20894,0 -0.39888,0.18995 -0.39888,0.39888 v 1.25362 c 0,0.20894 0.18994,0.36089 0.39888,0.39888 l 1.51953,0.24692 v 5.50832 c 0,2.69718 1.10167,3.24801 3.19103,3.24801 0.55083,0 0.93072,-0.057 1.50054,-0.15196 0.22793,-0.038 0.36089,-0.18994 0.36089,-0.37988 z"
           style="fill:#0189c7;fill-opacity:1;stroke-width:0.474858"
           id="path2449" />
        <path
           d="M 203.83529,131.91022 V 121.8053 c 0,-0.20893 -0.18994,-0.39888 -0.39888,-0.39888 h -2.2983 c -0.20893,0 -0.37988,0.18995 -0.37988,0.39888 v 7.48372 c -0.6458,0.34189 -1.23462,0.60781 -1.78546,0.60781 -1.15864,0 -1.40557,-0.43687 -1.40557,-1.76646 v -6.32507 c 0,-0.20893 -0.17094,-0.39888 -0.37988,-0.39888 h -2.2983 c -0.20893,0 -0.39888,0.18995 -0.39888,0.39888 v 6.32507 c 0,2.39327 0.60782,4.31168 3.36198,4.31168 1.21563,0 2.05137,-0.24692 3.09605,-0.98769 v 0.45586 c 0,0.20893 0.17095,0.37988 0.37989,0.37988 h 2.12735 c 0.20893,0 0.37988,-0.17095 0.37988,-0.37988 z"
           style="fill:#0189c7;fill-opacity:1;stroke-width:0.474858"
           id="path2451" />
        <path
           d="m 215.17482,131.41637 v -13.31494 c 0,-0.20893 -0.18994,-0.37988 -0.39888,-0.37988 h -2.2983 c -0.20893,0 -0.37988,0.17095 -0.37988,0.37988 v 3.286 c -0.55083,-0.076 -1.17764,-0.13296 -1.55753,-0.13296 -3.21002,0 -4.76754,1.88043 -4.76754,4.86252 v 1.48154 c 0,3.07706 1.69048,4.86252 4.76754,4.86252 1.46256,0 2.9631,-0.22793 4.04577,-0.49385 0.51284,-0.11397 0.58882,-0.24693 0.58882,-0.55083 z m -3.07706,-1.59552 c -0.36089,0.057 -0.93072,0.11397 -1.55753,0.11397 -1.34858,0 -1.69048,-0.9877 -1.69048,-2.33629 v -1.48154 c 0,-1.3296 0.3419,-2.3173 1.69048,-2.3173 0.45586,0 1.10167,0.038 1.55753,0.095 z"
           style="fill:#0189c7;fill-opacity:1;stroke-width:0.474858"
           id="path2453" />
        <path
           d="m 220.6831,119.79192 v -1.76646 c 0,-0.20894 -0.17094,-0.37989 -0.37988,-0.37989 h -2.46925 c -0.20893,0 -0.37988,0.17095 -0.37988,0.37989 v 1.76646 c 0,0.20893 0.17095,0.37988 0.37988,0.37988 h 2.46925 c 0.20894,0 0.37988,-0.17095 0.37988,-0.37988 z m -0.076,12.1183 v -10.12391 c 0,-0.20894 -0.17095,-0.37989 -0.37989,-0.37989 h -2.31729 c -0.20894,0 -0.37988,0.17095 -0.37988,0.37989 v 10.12391 c 0,0.20893 0.17094,0.37988 0.37988,0.37988 h 2.31729 c 0.20894,0 0.37989,-0.17095 0.37989,-0.37988 z"
           style="fill:#0189c7;fill-opacity:1;stroke-width:0.474858"
           id="path2455" />
        <path
           d="m 232.17457,127.52256 v -1.3296 c 0,-3.02008 -1.67149,-4.93849 -4.74855,-4.93849 -3.07706,0 -4.76754,1.91841 -4.76754,4.93849 v 1.3296 c 0,3.02007 1.69048,4.93849 4.76754,4.93849 3.07706,0 4.74855,-1.91842 4.74855,-4.93849 z m -3.05806,0 c 0,1.53853 -0.58882,2.33628 -1.69049,2.33628 -1.10166,0 -1.70947,-0.79775 -1.70947,-2.33628 v -1.3296 c 0,-1.53853 0.60781,-2.31729 1.70947,-2.31729 1.10167,0 1.69049,0.77876 1.69049,2.31729 z"
           style="fill:#0189c7;fill-opacity:1;stroke-width:0.474858"
           id="path2457" />
      </g>
      <g
         id="g2908">
        <path
           id="rect2490"
           style="fill:#585858;fill-opacity:1;stroke:none;stroke-width:0.2;stroke-opacity:1;paint-order:markers fill stroke"
           d="m 494.644,441.421 c 0,-4.547 -4.151,-8.697 -9.456,-9.324 l -79.435,-9.385 c -8.389,-0.991 -15.394,3.004 -15.394,8.995 v 76.936 c 0,5.991 7.005,10.045 15.394,9.125 l 79.435,-8.717 c 5.305,-0.582 9.456,-4.698 9.456,-9.244 z m -6.67513,1.57839 0.0717,57.66326 c 0.002,1.438 -1.338,2.713 -3.013,2.859 l -79.78005,4.97352 c -2.498,0.218 -4.5282,-1.038 -4.53,-2.82 l -0.0717,-71.08126 c -0.002,-1.782 2.032,-3.024 4.53,-2.787 l 79.78005,8.30848 c 1.675,0.159 3.01122,1.446 3.013,2.884 z"
           transform="scale(0.264583)"
           sodipodi:nodetypes="sccssccssssccssccs" />
        <path
           id="rect2510"
           style="fill:none;fill-opacity:1;stroke:none;stroke-width:0.0529167;stroke-opacity:1;paint-order:markers fill stroke"
           d="m 103.28199,111.36123 27.59226,3.25995 v 19.79056 l -27.59226,3.02792 z"
           sodipodi:nodetypes="ccccc" />
        <path
           style="fill:#585858;fill-opacity:1;stroke:none;stroke-width:0.264583px;stroke-linecap:butt;stroke-linejoin:miter;stroke-opacity:1"
           d="m 113.45425,137.90655 -0.0567,2.6607 9.96175,-2.34308 -0.002,-1.70817 z"
           id="path2583" />
        <g
           id="g2807"
           transform="matrix(1.2495017,0,0,1.2495017,-83.891297,-95.781241)"
           style="opacity:1;fill:#585858;fill-opacity:1;stroke:none">
          <path
             id="ellipse2773"
             style="fill:#585858;fill-opacity:1;stroke:none;stroke-width:0.2;stroke-opacity:1;paint-order:markers fill stroke"
             d="m 605.53906,643.5625 a 2.0539405,2.1161079 0 0 0 -2.05468,2.11523 2.0539405,2.1161079 0 0 0 2.05468,2.11719 2.0539405,2.1161079 0 0 0 1.77539,-1.05273 l 5.56836,1.68164 a 2.6449267,2.7249815 0 0 0 2.64258,2.66992 2.6449267,2.7249815 0 0 0 1.92773,-0.85937 l 3.81446,1.94335 a 2.8298957,2.9155491 0 0 0 -0.0742,0.65821 2.8298957,2.9155491 0 0 0 1.16016,2.35351 c -0.54131,1.71033 -1.00573,3.20192 -1.36914,4.40821 a 2.0539405,2.1161079 0 0 0 -1.45704,0.80859 l -7.62695,-4.39258 a 2.8298957,2.9155491 0 0 0 0.10742,-0.79492 2.8298957,2.9155491 0 0 0 -2.83008,-2.91406 2.8298957,2.9155491 0 0 0 -2.83007,2.91406 2.8298957,2.9155491 0 0 0 2.83007,2.91602 2.8298957,2.9155491 0 0 0 2.21875,-1.10547 l 7.7168,4.38867 a 2.0539405,2.1161079 0 0 0 -0.0195,0.28711 2.0539405,2.1161079 0 0 0 2.05469,2.11719 2.0539405,2.1161079 0 0 0 1.32226,-0.4961 l 3.81641,2.16992 a 2.0539405,2.1161079 0 0 0 -0.0371,0.39258 2.0539405,2.1161079 0 0 0 1.22852,1.9375 l -0.73243,6.31836 a 2.0539405,2.1161079 0 0 0 -1.41992,0.94922 l -4.01953,-0.92578 a 3.3286619,3.4294116 0 0 0 -1.84375,-3.00391 l 0.32227,-1.72265 a 2.0539405,2.1161079 0 0 0 0.16796,0.008 2.0539405,2.1161079 0 0 0 2.05469,-2.11719 2.0539405,2.1161079 0 0 0 -2.05469,-2.11523 2.0539405,2.1161079 0 0 0 -2.05273,2.11523 2.0539405,2.1161079 0 0 0 0.84766,1.71289 l -0.43946,1.77539 a 3.3286619,3.4294116 0 0 0 -0.33007,-0.0156 3.3286619,3.4294116 0 0 0 -3.32813,3.42773 3.3286619,3.4294116 0 0 0 3.32813,3.42969 3.3286619,3.4294116 0 0 0 3.14453,-2.30664 L 625,676.16797 a 2.0539405,2.1161079 0 0 0 -0.002,0.0703 2.0539405,2.1161079 0 0 0 2.05468,2.11524 2.0539405,2.1161079 0 0 0 2.05469,-2.11524 2.0539405,2.1161079 0 0 0 -1.23047,-1.93945 l 0.78711,-6.32617 a 2.0539405,2.1161079 0 0 0 1.69336,-2.08399 2.0539405,2.1161079 0 0 0 -2.05273,-2.11523 2.0539405,2.1161079 0 0 0 -1.58789,0.77344 l -3.64649,-2.09961 a 2.0539405,2.1161079 0 0 0 0.13086,-0.74219 2.0539405,2.1161079 0 0 0 -0.74805,-1.63086 l 1.08204,-4.36719 a 2.8298957,2.9155491 0 0 0 0.48632,0.0449 2.8298957,2.9155491 0 0 0 2.83008,-2.91601 2.8298957,2.9155491 0 0 0 -2.83008,-2.91602 2.8298957,2.9155491 0 0 0 -2.27929,1.19141 l -3.6836,-1.96094 a 2.6449267,2.7249815 0 0 0 0.11329,-0.78125 2.6449267,2.7249815 0 0 0 -2.64649,-2.72461 2.6449267,2.7249815 0 0 0 -2.41406,1.61524 l -5.52149,-1.51172 a 2.0539405,2.1161079 0 0 0 0.002,-0.0703 2.0539405,2.1161079 0 0 0 -2.05274,-2.11523 z"
             transform="scale(0.26458333)" />
          <path
             style="fill:#585858;fill-opacity:1;stroke:none;stroke-width:0.0264583;stroke-linecap:butt;stroke-linejoin:miter;stroke-miterlimit:4;stroke-dasharray:none;stroke-opacity:1"
             d="m 159.07609,170.95586 c -0.19665,0.98335 -2.11241,3.25016 0.36724,6.89244 1.90825,2.80297 5.46904,2.46718 5.63344,2.65972 0.38085,0.6371 0.9994,2.30887 0.9994,2.30887 0,0 -4.62787,0.0155 -4.90129,-0.003 -1.47117,-0.0994 1.15616,-2.07102 -1.83223,-1.12433 -2.19185,0.69435 -1.52527,-0.85749 -1.46383,-1.11874 0.18257,-0.77632 -0.36499,-0.44248 -0.44851,-0.67165 -0.0549,-0.1506 0.41234,-0.34643 0.38248,-0.41958 -0.0275,-0.0674 -0.54604,-0.0325 -0.62936,-0.24115 -0.0876,-0.21935 0.35704,-0.55994 0.30502,-0.63957 -0.0568,-0.0869 -1.24477,-0.40349 -1.16115,-0.71552 0.21761,-0.81204 0.35977,-0.40944 0.94732,-1.98148 0.43679,-1.16868 -0.6714,-2.29821 1.80147,-4.94601 z"
             id="path2803"
             sodipodi:nodetypes="csccsssssssssc" />
        </g>
      </g>
    </g>
    <rect
       style="fill:none;stroke-width:0.033829;paint-order:markers fill stroke"
       id="rect3612"
       width="147.71915"
       height="41.551441"
       x="5.1075068"
       y="17.662743" />
  </g>
</svg>
